<svg id="Layer_1" data-name="Layer 1" xmlns="http://www.w3.org/2000/svg" viewBox="0 0 197.38 511.6"><defs><style>.cls-1{fill:#fff;}</style></defs><title>arrow</title><rect class="cls-1" x="76.77" y="399.94" width="458.95" height="45.94" transform="translate(521.6 -24.12) rotate(90)"/><path class="cls-1" d="M237.27,268.18l69-69,69,69,27.7,0.06a2,2,0,0,0,2-2l-0.13-27.7L334.63,168.4a1.9,1.9,0,0,0-.16-0.24l-26.78-26.78a2,2,0,0,0-2.18-.43,2,2,0,0,0-.72.45L278,168.17s-0.06.1-.1,0.15L207.62,238.6l-0.06,27.7a2,2,0,0,0,2,2Z" transform="translate(-207.55 -140.79)"/></svg>