<svg id="Layer_1" data-name="Layer 1" xmlns="http://www.w3.org/2000/svg" viewBox="0 0 197.38 511.6"><defs><style>.cls-1{fill:#fff}</style></defs><title>arrow</title><path class="cls-1" transform="rotate(90 272.86 248.74)" d="M76.77 399.94h458.95v45.94H76.77z"/><path class="cls-1" d="M237.27 268.18l69-69 69 69 27.7.06a2 2 0 0 0 2-2l-.13-27.7-70.21-70.14a1.9 1.9 0 0 0-.16-.24l-26.78-26.78a2 2 0 0 0-2.18-.43 2 2 0 0 0-.72.45L278 168.17s-.06.1-.1.15l-70.28 70.28-.06 27.7a2 2 0 0 0 2 2z" transform="translate(-207.55 -140.79)"/></svg>